<svg width="2350px" height="548px">
  <defs>
    <linearGradient id="gradBlue1" x1="0%" x2="100%" y1="0%" y2="0%">
      <stop id="myStop1" offset="0%" stop-color="White"></stop>
      <stop id="myStop2" offset="100%" stop-color="#1919FF"></stop>
    </linearGradient>
    <linearGradient id="gradGreen1" x1="0%" x2="100%" y1="0%" y2="0%">
      <stop id="myStop1" offset="0%" stop-color="White"></stop>
      <stop id="myStop2" offset="100%" stop-color="#00FF00"></stop>
    </linearGradient>
    <linearGradient id="gradViolet1" x1="0%" x2="100%" y1="0%" y2="0%">
      <stop id="myStop1" offset="0%" stop-color="White"></stop>
      <stop id="myStop2" offset="100%" stop-color="#FF0066"></stop>
    </linearGradient>
    <linearGradient id="gradDarkGreen1" x1="0%" x2="100%" y1="0%" y2="0%">
      <stop id="myStop1" offset="0%" stop-color="#00FF00"></stop>
      <stop id="myStop2" offset="100%" stop-color="#008800"></stop>
    </linearGradient>
  </defs>
  <rect fill="url(#gradDarkGreen1)" width="220px" height="55px" x="0" y="152.5" title=""></rect>
  <text>
    <tspan font-size="14px" fill="rgb(0,0,0)" stroke="none" x="3" y="169.5">Base research</tspan>
  </text>
  <text>
    <tspan font-size="14px" fill="rgb(0,0,0)" stroke="none" x="210" y="169.5">2</tspan>
  </text>
  <line fill="none" stroke="rgb(0,0,0)" x1="5" y1="172.5" x2="215" y2="172.5"></line>
  <line fill="none" stroke="rgb(0,0,0)" x1="220" y1="180" x2="260" y2="27.5"></line>
  <line fill="none" stroke="rgb(0,0,0)" x1="220" y1="180" x2="260" y2="119"></line>
  <line fill="none" stroke="rgb(0,0,0)" x1="220" y1="180" x2="260" y2="332.5"></line>
  <line fill="none" stroke="rgb(0,0,0)" x1="220" y1="180" x2="260" y2="241"></line>
  <image x="3" y="174.5" width="32" height="32" title="Building material plant" xmlns:xlink="http://www.w3.org/1999/xlink" xlink:href="BuildingMaterialPlant.png"></image>
  <image x="38" y="174.5" width="32" height="32" title="Solar power plant" xmlns:xlink="http://www.w3.org/1999/xlink" xlink:href="SolarPanels.png"></image>
  <image x="73" y="174.5" width="32" height="32" title="Assembly plant" xmlns:xlink="http://www.w3.org/1999/xlink" xlink:href="AssemblyPlant.png"></image>
  <rect fill="url(#gradDarkGreen1)" width="220px" height="55px" x="260" y="0" title=""></rect>
  <text>
    <tspan font-size="14px" fill="rgb(0,0,0)" stroke="none" x="263" y="17">Water power plant</tspan>
  </text>
  <text>
    <tspan font-size="14px" fill="rgb(0,0,0)" stroke="none" x="470" y="17">5</tspan>
  </text>
  <line fill="none" stroke="rgb(0,0,0)" x1="265" y1="20" x2="475" y2="20"></line>
  <image x="263" y="22" width="32" height="32" title="Water power plant" xmlns:xlink="http://www.w3.org/1999/xlink" xlink:href="SolarPanels.png"></image>
  <rect fill="url(#gradDarkGreen1)" width="220px" height="55px" x="260" y="91.5" title=""></rect>
  <text>
    <tspan font-size="14px" fill="rgb(0,0,0)" stroke="none" x="263" y="108.5">Refinery</tspan>
  </text>
  <text>
    <tspan font-size="14px" fill="rgb(0,0,0)" stroke="none" x="470" y="108.5">4</tspan>
  </text>
  <line fill="none" stroke="rgb(0,0,0)" x1="265" y1="111.5" x2="475" y2="111.5"></line>
  <line fill="none" stroke="rgb(0,0,0)" x1="480" y1="119" x2="520" y2="149.5"></line>
  <image x="263" y="113.5" width="32" height="32" title="Fuel generation" xmlns:xlink="http://www.w3.org/1999/xlink" xlink:href="OilWell2.png"></image>
  <image x="298" y="113.5" width="32" height="32" title="Synthetic materials plant" xmlns:xlink="http://www.w3.org/1999/xlink" xlink:href="AssemblyPlant.png"></image>
  <rect fill="url(#gradDarkGreen1)" width="220px" height="55px" x="520" y="122" title=""></rect>
  <text>
    <tspan font-size="14px" fill="rgb(0,0,0)" stroke="none" x="523" y="139">Power plant</tspan>
  </text>
  <text>
    <tspan font-size="14px" fill="rgb(0,0,0)" stroke="none" x="723" y="139">22</tspan>
  </text>
  <line fill="none" stroke="rgb(0,0,0)" x1="525" y1="142" x2="735" y2="142"></line>
  <line fill="none" stroke="rgb(0,0,0)" x1="740" y1="149.5" x2="780" y2="149.5"></line>
  <image x="523" y="144" width="32" height="32" title="Power plant" xmlns:xlink="http://www.w3.org/1999/xlink" xlink:href="PowerPlant.png"></image>
  <rect fill="url(#gradGreen1)" width="220px" height="55px" x="780" y="335.5" title=""></rect>
  <text>
    <tspan font-size="14px" fill="rgb(0,0,0)" stroke="none" x="783" y="352.5">Communication center</tspan>
  </text>
  <text>
    <tspan font-size="14px" fill="rgb(0,0,0)" stroke="none" x="983" y="352.5">29</tspan>
  </text>
  <line fill="none" stroke="rgb(0,0,0)" x1="785" y1="355.5" x2="995" y2="355.5"></line>
  <image x="783" y="357.5" width="32" height="32" title="Communication center" xmlns:xlink="http://www.w3.org/1999/xlink" xlink:href="CommCenter.png"></image>
  <rect fill="url(#gradDarkGreen1)" width="220px" height="55px" x="260" y="305" title=""></rect>
  <text>
    <tspan font-size="14px" fill="rgb(0,0,0)" stroke="none" x="263" y="322">Ecosytem Adaption I</tspan>
  </text>
  <text>
    <tspan font-size="14px" fill="rgb(0,0,0)" stroke="none" x="470" y="322">2</tspan>
  </text>
  <line fill="none" stroke="rgb(0,0,0)" x1="265" y1="325" x2="475" y2="325"></line>
  <image x="263" y="327" width="32" height="32" title="Agriculture" xmlns:xlink="http://www.w3.org/1999/xlink" xlink:href="Farm.png"></image>
  <image x="298" y="327" width="32" height="32" title="Houses" xmlns:xlink="http://www.w3.org/1999/xlink" xlink:href="Houses.png"></image>
  <rect fill="url(#gradDarkGreen1)" width="220px" height="55px" x="520" y="244" title=""></rect>
  <text>
    <tspan font-size="14px" fill="rgb(0,0,0)" stroke="none" x="523" y="261">Adv. building material</tspan>
  </text>
  <text>
    <tspan font-size="14px" fill="rgb(0,0,0)" stroke="none" x="723" y="261">29</tspan>
  </text>
  <line fill="none" stroke="rgb(0,0,0)" x1="525" y1="264" x2="735" y2="264"></line>
  <image x="523" y="266" width="32" height="32" title="Adv. material factory" xmlns:xlink="http://www.w3.org/1999/xlink" xlink:href="AdvBuildingMaterial.png"></image>
  <rect fill="url(#gradDarkGreen1)" width="220px" height="55px" x="520" y="335.5" title=""></rect>
  <text>
    <tspan font-size="14px" fill="rgb(0,0,0)" stroke="none" x="523" y="352.5">Planetary Scanner</tspan>
  </text>
  <text>
    <tspan font-size="14px" fill="rgb(0,0,0)" stroke="none" x="723" y="352.5">14</tspan>
  </text>
  <line fill="none" stroke="rgb(0,0,0)" x1="525" y1="355.5" x2="735" y2="355.5"></line>
  <line fill="none" stroke="rgb(0,0,0)" x1="740" y1="363" x2="780" y2="363"></line>
  <image x="523" y="357.5" width="32" height="32" title="Planetary Scanner" xmlns:xlink="http://www.w3.org/1999/xlink" xlink:href="PlanetaryScanner.png"></image>
  <rect fill="url(#gradDarkGreen1)" width="220px" height="55px" x="780" y="122" title=""></rect>
  <text>
    <tspan font-size="14px" fill="rgb(0,0,0)" stroke="none" x="783" y="139">Superconductors </tspan>
  </text>
  <text>
    <tspan font-size="14px" fill="rgb(0,0,0)" stroke="none" x="976" y="139">114</tspan>
  </text>
  <line fill="none" stroke="rgb(0,0,0)" x1="785" y1="142" x2="995" y2="142"></line>
  <image x="783" y="144" width="32" height="32" title="+10% Energy" xmlns:xlink="http://www.w3.org/1999/xlink" xlink:href="SolarPanels.png"></image>
  <rect fill="url(#gradGreen1)" width="220px" height="55px" x="520" y="183" title=""></rect>
  <text>
    <tspan font-size="14px" fill="rgb(0,0,0)" stroke="none" x="523" y="200">Warehouse construction plan</tspan>
  </text>
  <text>
    <tspan font-size="14px" fill="rgb(0,0,0)" stroke="none" x="708" y="200">1500</tspan>
  </text>
  <line fill="none" stroke="rgb(0,0,0)" x1="525" y1="203" x2="735" y2="203"></line>
  <image x="523" y="205" width="32" height="32" title="Warehouse" xmlns:xlink="http://www.w3.org/1999/xlink" xlink:href="Depot.png"></image>
  <rect fill="url(#gradDarkGreen1)" width="220px" height="55px" x="260" y="213.5" title=""></rect>
  <text>
    <tspan font-size="14px" fill="rgb(0,0,0)" stroke="none" x="263" y="230.5">Ore mine construction plan</tspan>
  </text>
  <text>
    <tspan font-size="14px" fill="rgb(0,0,0)" stroke="none" x="470" y="230.5">4</tspan>
  </text>
  <line fill="none" stroke="rgb(0,0,0)" x1="265" y1="233.5" x2="475" y2="233.5"></line>
  <line fill="none" stroke="rgb(0,0,0)" x1="480" y1="241" x2="520" y2="271.5"></line>
  <line fill="none" stroke="rgb(0,0,0)" x1="480" y1="241" x2="520" y2="210.5"></line>
  <image x="263" y="235.5" width="32" height="32" title="Mining sector" xmlns:xlink="http://www.w3.org/1999/xlink" xlink:href="Headframe.png"></image>
  <image x="298" y="235.5" width="32" height="32" title="Blast furnace" xmlns:xlink="http://www.w3.org/1999/xlink" xlink:href="152.png"></image>
</svg>