<svg width="2350px" height="548px">
  <defs>
    <linearGradient id="gradBlue4" x1="0%" x2="100%" y1="0%" y2="0%">
      <stop id="myStop1" offset="0%" stop-color="White"></stop>
      <stop id="myStop2" offset="100%" stop-color="#1919FF"></stop>
    </linearGradient>
    <linearGradient id="gradGreen4" x1="0%" x2="100%" y1="0%" y2="0%">
      <stop id="myStop1" offset="0%" stop-color="White"></stop>
      <stop id="myStop2" offset="100%" stop-color="#00FF00"></stop>
    </linearGradient>
    <linearGradient id="gradViolet4" x1="0%" x2="100%" y1="0%" y2="0%">
      <stop id="myStop1" offset="0%" stop-color="White"></stop>
      <stop id="myStop2" offset="100%" stop-color="#FF0066"></stop>
    </linearGradient>
    <linearGradient id="gradDarkGreen4" x1="0%" x2="100%" y1="0%" y2="0%">
      <stop id="myStop1" offset="0%" stop-color="#00FF00"></stop>
      <stop id="myStop2" offset="100%" stop-color="#008800"></stop>
    </linearGradient>
  </defs>
  <rect fill="url(#gradDarkGreen4)" width="220px" height="55px" x="0" y="152.5" title=""></rect>
  <text>
    <tspan font-size="14px" fill="rgb(0,0,0)" stroke="none" x="3" y="169.5">Base research</tspan>
  </text>
  <text>
    <tspan font-size="14px" fill="rgb(0,0,0)" stroke="none" x="210" y="169.5">2</tspan>
  </text>
  <line fill="none" stroke="rgb(0,0,0)" x1="5" y1="172.5" x2="215" y2="172.5"></line>
  <line fill="none" stroke="rgb(0,0,0)" x1="220" y1="180" x2="260" y2="149.5"></line>
  <line fill="none" stroke="rgb(0,0,0)" x1="220" y1="180" x2="260" y2="210.5"></line>
  <image x="3" y="174.5" width="32" height="32" title="Building material plant" xmlns:xlink="http://www.w3.org/1999/xlink" xlink:href="BuildingMaterialPlant.png"></image>
  <image x="38" y="174.5" width="32" height="32" title="Solar power plant" xmlns:xlink="http://www.w3.org/1999/xlink" xlink:href="SolarPanels.png"></image>
  <image x="73" y="174.5" width="32" height="32" title="Assembly plant" xmlns:xlink="http://www.w3.org/1999/xlink" xlink:href="AssemblyPlant.png"></image>
  <rect fill="url(#gradDarkGreen4)" width="220px" height="55px" x="260" y="122" title=""></rect>
  <text>
    <tspan font-size="14px" fill="rgb(0,0,0)" stroke="none" x="263" y="139">Administration I</tspan>
  </text>
  <text>
    <tspan font-size="14px" fill="rgb(0,0,0)" stroke="none" x="470" y="139">5</tspan>
  </text>
  <line fill="none" stroke="rgb(0,0,0)" x1="265" y1="142" x2="475" y2="142"></line>
  <line fill="none" stroke="rgb(0,0,0)" x1="480" y1="149.5" x2="520" y2="149.5"></line>
  <image x="263" y="144" width="32" height="32" title=" +1 number of possible colonies to own" xmlns:xlink="http://www.w3.org/1999/xlink" xlink:href="Houses.png"></image>
  <rect fill="url(#gradDarkGreen4)" width="220px" height="55px" x="520" y="122" title=""></rect>
  <text>
    <tspan font-size="14px" fill="rgb(0,0,0)" stroke="none" x="523" y="139">Administration II</tspan>
  </text>
  <text>
    <tspan font-size="14px" fill="rgb(0,0,0)" stroke="none" x="723" y="139">55</tspan>
  </text>
  <line fill="none" stroke="rgb(0,0,0)" x1="525" y1="142" x2="735" y2="142"></line>
  <line fill="none" stroke="rgb(0,0,0)" x1="740" y1="149.5" x2="780" y2="149.5"></line>
  <image x="523" y="144" width="32" height="32" title=" +1 number of possible colonies to own" xmlns:xlink="http://www.w3.org/1999/xlink" xlink:href="Houses.png"></image>
  <rect fill="url(#gradGreen4)" width="220px" height="55px" x="780" y="122" title=""></rect>
  <text>
    <tspan font-size="14px" fill="rgb(0,0,0)" stroke="none" x="783" y="139">Administration III</tspan>
  </text>
  <text>
    <tspan font-size="14px" fill="rgb(0,0,0)" stroke="none" x="976" y="139">320</tspan>
  </text>
  <line fill="none" stroke="rgb(0,0,0)" x1="785" y1="142" x2="995" y2="142"></line>
  <line fill="none" stroke="rgb(0,0,0)" x1="1000" y1="149.5" x2="1040" y2="149.5"></line>
  <image x="783" y="144" width="32" height="32" title=" +1 number of possible colonies to own" xmlns:xlink="http://www.w3.org/1999/xlink" xlink:href="Houses.png"></image>
  <rect fill="url(#gradBlue4)" width="220px" height="55px" x="1040" y="122" title=""></rect>
  <text>
    <tspan font-size="14px" fill="rgb(0,0,0)" stroke="none" x="1043" y="139">Administration IV</tspan>
  </text>
  <text>
    <tspan font-size="14px" fill="rgb(0,0,0)" stroke="none" x="1236" y="139">900</tspan>
  </text>
  <line fill="none" stroke="rgb(0,0,0)" x1="1045" y1="142" x2="1255" y2="142"></line>
  <line fill="none" stroke="rgb(0,0,0)" x1="1260" y1="149.5" x2="1300" y2="149.5"></line>
  <image x="1043" y="144" width="32" height="32" title=" +1 number of possible colonies to own" xmlns:xlink="http://www.w3.org/1999/xlink" xlink:href="Houses.png"></image>
  <rect fill="url(#gradBlue4)" width="220px" height="55px" x="1300" y="122" title=""></rect>
  <text>
    <tspan font-size="14px" fill="rgb(0,0,0)" stroke="none" x="1303" y="139">Administration V</tspan>
  </text>
  <text>
    <tspan font-size="14px" fill="rgb(0,0,0)" stroke="none" x="1488" y="139">1000</tspan>
  </text>
  <line fill="none" stroke="rgb(0,0,0)" x1="1305" y1="142" x2="1515" y2="142"></line>
  <image x="1303" y="144" width="32" height="32" title=" +2 number of possible colonies to own" xmlns:xlink="http://www.w3.org/1999/xlink" xlink:href="Houses.png"></image>
  <rect fill="url(#gradDarkGreen4)" width="220px" height="55px" x="260" y="183" title=""></rect>
  <text>
    <tspan font-size="14px" fill="rgb(0,0,0)" stroke="none" x="263" y="200">Fleet Command I</tspan>
  </text>
  <text>
    <tspan font-size="14px" fill="rgb(0,0,0)" stroke="none" x="463" y="200">14</tspan>
  </text>
  <line fill="none" stroke="rgb(0,0,0)" x1="265" y1="203" x2="475" y2="203"></line>
  <line fill="none" stroke="rgb(0,0,0)" x1="480" y1="210.5" x2="520" y2="210.5"></line>
  <image x="263" y="205" width="32" height="32" title=" + 50 fleet command points"
    <br> -10% productivity" xmlns:xlink="http://www.w3.org/1999/xlink" xlink:href="Scout2G.png">
  </image>
  <rect fill="url(#gradGreen4)" width="220px" height="55px" x="520" y="183" title=""></rect>
  <text>
    <tspan font-size="14px" fill="rgb(0,0,0)" stroke="none" x="523" y="200">Fleet Command II</tspan>
  </text>
  <text>
    <tspan font-size="14px" fill="rgb(0,0,0)" stroke="none" x="716" y="200">178</tspan>
  </text>
  <line fill="none" stroke="rgb(0,0,0)" x1="525" y1="203" x2="735" y2="203"></line>
  <line fill="none" stroke="rgb(0,0,0)" x1="740" y1="210.5" x2="780" y2="210.5"></line>
  <image x="523" y="205" width="32" height="32" title=" + 100 fleet command points"
    <br> -12% productivity" xmlns:xlink="http://www.w3.org/1999/xlink" xlink:href="Corvette.png">
  </image>
  <rect fill="url(#gradBlue4)" width="220px" height="55px" x="780" y="183" title=""></rect>
  <text>
    <tspan font-size="14px" fill="rgb(0,0,0)" stroke="none" x="783" y="200">Fleet Command III</tspan>
  </text>
  <text>
    <tspan font-size="14px" fill="rgb(0,0,0)" stroke="none" x="976" y="200">945</tspan>
  </text>
  <line fill="none" stroke="rgb(0,0,0)" x1="785" y1="203" x2="995" y2="203"></line>
  <line fill="none" stroke="rgb(0,0,0)" x1="1000" y1="210.5" x2="1040" y2="210.5"></line>
  <image x="783" y="205" width="32" height="32" title=" + 150 fleet command points"
    <br> -15% productivity" xmlns:xlink="http://www.w3.org/1999/xlink" xlink:href="Fregatte.png">
  </image>
  <rect fill="url(#gradBlue4)" width="220px" height="55px" x="1040" y="183" title=""></rect>
  <text>
    <tspan font-size="14px" fill="rgb(0,0,0)" stroke="none" x="1043" y="200">Fleet Command IV</tspan>
  </text>
  <text>
    <tspan font-size="14px" fill="rgb(0,0,0)" stroke="none" x="1228" y="200">2000</tspan>
  </text>
  <line fill="none" stroke="rgb(0,0,0)" x1="1045" y1="203" x2="1255" y2="203"></line>
  <line fill="none" stroke="rgb(0,0,0)" x1="1260" y1="210.5" x2="1300" y2="210.5"></line>
  <image x="1043" y="205" width="32" height="32" title=" + 200 fleet command points"
    <br> -19% productivity" xmlns:xlink="http://www.w3.org/1999/xlink" xlink:href="Fregatte.png">
  </image>
  <rect fill="url(#gradBlue4)" width="220px" height="55px" x="1300" y="183" title=""></rect>
  <text>
    <tspan font-size="14px" fill="rgb(0,0,0)" stroke="none" x="1303" y="200">Fleet Command V</tspan>
  </text>
  <text>
    <tspan font-size="14px" fill="rgb(0,0,0)" stroke="none" x="1488" y="200">4000</tspan>
  </text>
  <line fill="none" stroke="rgb(0,0,0)" x1="1305" y1="203" x2="1515" y2="203"></line>
  <image x="1303" y="205" width="32" height="32" title=" + 250 fleet command points"
    <br> -24% productivity" xmlns:xlink="http://www.w3.org/1999/xlink" xlink:href="Fregatte.png">
  </image>
  <rect fill="url(#gradDarkGreen4)" width="220px" height="55px" x="780" y="244" title=""></rect>
  <text>
    <tspan font-size="14px" fill="rgb(0,0,0)" stroke="none" x="783" y="261">Transcendence</tspan>
  </text>
  <text>
    <tspan font-size="14px" fill="rgb(0,0,0)" stroke="none" x="983" y="261">95</tspan>
  </text>
  <line fill="none" stroke="rgb(0,0,0)" x1="785" y1="264" x2="995" y2="264"></line>
  <line fill="none" stroke="rgb(0,0,0)" x1="1000" y1="271.5" x2="1040" y2="271.5"></line>
  <image x="783" y="266" width="32" height="32" title="Transcendence Builder" xmlns:xlink="http://www.w3.org/1999/xlink" xlink:href="TranscendenceBuildert60.png"></image>
  <rect fill="url(#gradDarkGreen4)" width="220px" height="55px" x="1040" y="244" title=""></rect>
  <text>
    <tspan font-size="14px" fill="rgb(0,0,0)" stroke="none" x="1043" y="261">Transcendence Collaboration</tspan>
  </text>
  <text>
    <tspan font-size="14px" fill="rgb(0,0,0)" stroke="none" x="1236" y="261">945</tspan>
  </text>
  <line fill="none" stroke="rgb(0,0,0)" x1="1045" y1="264" x2="1255" y2="264"></line>
  <image x="1043" y="266" width="32" height="32" title="Transcendence Construct" xmlns:xlink="http://www.w3.org/1999/xlink" xlink:href="TranscendenceConstruct60.png"></image>
  <image x="1078" y="266" width="32" height="32" title="Transcendence Construct" xmlns:xlink="http://www.w3.org/1999/xlink" xlink:href="TranscendenceConstruct60.png"></image>
</svg>