<?xml version="1.0" standalone="no"?>
<!DOCTYPE svg PUBLIC "-//W3C//DTD SVG 20010904//EN"
 "http://www.w3.org/TR/2001/REC-SVG-20010904/DTD/svg10.dtd">
<svg version="1.0" xmlns="http://www.w3.org/2000/svg"
 width="260.000000pt" height="260.000000pt" viewBox="0 0 260.000000 260.000000"
 preserveAspectRatio="xMidYMid meet">
<metadata>
Created by potrace 1.11, written by Peter Selinger 2001-2013
</metadata>
<g transform="translate(0.000000,260.000000) scale(0.100000,-0.100000)"
fill="#000000" stroke="none">
<path d="M1824 2216 c-22 -35 -163 -209 -314 -387 -151 -178 -313 -368 -360
-424 -113 -134 -120 -142 -155 -181 l-30 -34 -260 69 c-143 38 -259 73 -258
78 1 5 49 90 107 188 70 119 103 182 96 189 -11 11 -5 17 -140 -139 -52 -60
-104 -119 -115 -131 -11 -11 -42 -47 -70 -79 -27 -31 -57 -65 -65 -74 -9 -9
-16 -27 -16 -39 0 -22 30 -52 270 -273 34 -31 88 -80 120 -111 l59 -54 -27
-47 c-24 -40 -26 -48 -12 -53 9 -3 14 -10 11 -14 -3 -4 1 -8 8 -7 36 1 57 -4
52 -13 -3 -5 -2 -10 4 -10 5 0 12 6 14 13 3 6 6 2 6 -10 1 -13 6 -23 12 -23 5
0 7 -5 3 -12 -4 -7 -3 -8 5 -4 6 4 9 12 6 17 -4 5 -1 9 4 9 6 0 11 -10 11 -22
0 -21 0 -21 15 -2 15 19 15 19 9 -1 -3 -12 2 -8 11 8 19 33 14 35 110 -55 33
-32 68 -58 77 -58 9 0 56 -14 103 -31 l86 -31 -16 -24 c-19 -30 -19 -34 4 -34
19 0 45 -23 35 -32 -2 -3 2 -8 11 -12 9 -3 13 -2 10 4 -4 6 9 3 29 -6 19 -9
37 -25 39 -35 9 -35 24 -22 84 70 2 3 260 -84 477 -160 85 -30 96 -28 111 21
4 14 13 39 20 55 7 17 36 95 65 175 28 80 65 180 81 222 32 87 34 98 17 98 -7
0 -62 -84 -123 -186 l-110 -185 -80 84 c-44 46 -121 128 -171 182 l-92 98 13
36 c8 20 37 95 65 166 59 150 157 401 299 767 54 141 112 277 127 303 24 41
25 48 12 62 -14 13 -19 7 -53 -52 -35 -63 -38 -66 -69 -62 -49 7 -103 35 -136
73 l-29 34 35 61 c33 55 39 89 15 89 -5 0 -26 -29 -47 -64z m-1118 -1513 c-6
-6 -36 9 -36 18 0 5 9 4 20 -3 10 -7 18 -14 16 -15z"/>
<path d="M1190 390 c0 -5 5 -10 10 -10 6 0 10 5 10 10 0 6 -4 10 -10 10 -5 0
-10 -4 -10 -10z"/>
<path d="M1260 356 c0 -3 9 -10 20 -16 11 -6 20 -8 20 -6 0 3 -9 10 -20 16
-11 6 -20 8 -20 6z"/>
</g>
</svg>
